<?xml version="1.0" encoding="UTF-8" standalone="no"?><!DOCTYPE svg PUBLIC "-//W3C//DTD SVG 1.1//EN" "http://www.w3.org/Graphics/SVG/1.1/DTD/svg11.dtd"><svg width="100%" height="100%" viewBox="0 0 2345 883" version="1.1" xmlns="http://www.w3.org/2000/svg" xmlns:xlink="http://www.w3.org/1999/xlink" xml:space="preserve" xmlns:serif="http://www.serif.com/" style="fill-rule:evenodd;clip-rule:evenodd;stroke-linejoin:round;stroke-miterlimit:2;"><g><circle cx="1181.76" cy="416.667" r="416.667" style="fill:#fc8401;"/><g><g><g><path d="M713.842,874.637l-22.543,-56.974l-112.308,-0l-21.314,56.974l-76.238,-0l121.735,-290.198l68.04,0l120.506,290.198l-77.878,-0Zm-77.878,-212.73l-36.889,99.602l72.959,-0l-36.07,-99.602Z" style="fill:#091216;fill-rule:nonzero;"/><path d="M1000.35,874.637l-116.817,-189.776l-1.23,-0l1.64,189.776l-68.041,-0l0,-290.198l79.927,0l116.407,189.366l1.23,0l-1.64,-189.366l68.041,0l-0,290.198l-79.517,-0Z" style="fill:#091216;fill-rule:nonzero;"/><path d="M1410.64,728.718c0,25.413 -4.713,47.342 -14.14,65.786c-9.428,18.445 -21.861,33.611 -37.3,45.497c-15.439,11.887 -32.859,20.631 -52.26,26.233c-19.401,5.602 -39.075,8.403 -59.023,8.403l-108.209,-0l-0,-290.198l104.93,0c20.494,0 40.715,2.391 60.663,7.173c19.947,4.782 37.709,12.707 53.284,23.774c15.576,11.066 28.146,25.89 37.71,44.472c9.564,18.581 14.345,41.535 14.345,68.86Zm-72.959,0c0,-16.395 -2.664,-29.99 -7.992,-40.783c-5.329,-10.794 -12.434,-19.401 -21.314,-25.823c-8.881,-6.421 -18.992,-10.998 -30.332,-13.731c-11.34,-2.732 -23.021,-4.099 -35.045,-4.099l-34.84,0l0,169.692l33.201,-0c12.57,-0 24.661,-1.435 36.274,-4.304c11.614,-2.869 21.861,-7.583 30.742,-14.141c8.88,-6.558 15.985,-15.302 21.314,-26.232c5.328,-10.931 7.992,-24.457 7.992,-40.579Z" style="fill:#091216;fill-rule:nonzero;"/><path d="M1702.89,765.198c0,17.488 -2.937,33.405 -8.812,47.751c-5.875,14.346 -14.278,26.643 -25.208,36.89c-10.93,10.247 -24.115,18.239 -39.554,23.978c-15.439,5.738 -32.586,8.607 -51.44,8.607c-19.128,0 -36.343,-2.869 -51.645,-8.607c-15.303,-5.739 -28.282,-13.731 -38.939,-23.978c-10.657,-10.247 -18.855,-22.544 -24.593,-36.89c-5.739,-14.346 -8.608,-30.263 -8.608,-47.751l0,-180.759l69.68,0l0,175.02c0,7.925 1.025,15.439 3.074,22.544c2.05,7.105 5.192,13.458 9.428,19.06c4.235,5.601 9.837,10.042 16.805,13.321c6.968,3.279 15.37,4.918 25.208,4.918c9.837,0 18.239,-1.639 25.207,-4.918c6.969,-3.279 12.639,-7.72 17.011,-13.321c4.372,-5.602 7.514,-11.955 9.427,-19.06c1.913,-7.105 2.869,-14.619 2.869,-22.544l0,-175.02l70.09,0l0,180.759Z" style="fill:#091216;fill-rule:nonzero;"/><path d="M1914.8,874.637l-62.712,-115.178l-23.774,0l0,115.178l-68.86,-0l0,-290.198l110.668,0c13.936,0 27.531,1.435 40.784,4.304c13.253,2.869 25.139,7.72 35.66,14.551c10.52,6.831 18.923,15.849 25.207,27.052c6.285,11.204 9.428,25.14 9.428,41.808c-0,19.675 -5.329,36.207 -15.986,49.596c-10.657,13.39 -25.412,22.954 -44.267,28.692l75.828,124.195l-81.976,-0Zm-2.869,-201.253c-0,-6.831 -1.435,-12.365 -4.304,-16.6c-2.869,-4.236 -6.558,-7.515 -11.067,-9.837c-4.509,-2.323 -9.564,-3.894 -15.166,-4.714c-5.602,-0.82 -10.998,-1.23 -16.19,-1.23l-37.3,0l0,67.631l33.201,-0c5.738,-0 11.613,-0.478 17.625,-1.435c6.012,-0.956 11.477,-2.664 16.395,-5.123c4.919,-2.459 8.949,-6.012 12.092,-10.657c3.142,-4.645 4.714,-10.657 4.714,-18.035Z" style="fill:#091216;fill-rule:nonzero;"/><rect x="2031.21" y="584.439" width="70.5" height="290.197" style="fill:#091216;fill-rule:nonzero;"/><path d="M2161.55,874.637l0,-290.198l70.5,0l0,229.125l112.308,0l0,61.073l-182.808,-0Z" style="fill:#091216;fill-rule:nonzero;"/></g><g><text x="136.585px" y="725.069px" style="font-family:'AvenirNext-Bold', 'Avenir Next', sans-serif;font-weight:700;font-size:198.63px;fill:#091216;">BY</text></g></g><g><rect x="0" y="184.752" width="70.5" height="290.197" style="fill:#091216;fill-rule:nonzero;"/><g><path d="M314.79,474.949l-116.816,-189.775l-1.23,-0l1.639,189.775l-68.04,0l-0,-290.197l79.927,0l116.407,189.366l1.229,0l-1.639,-189.366l68.041,0l-0,290.197l-79.518,0Z" style="fill:#091216;fill-rule:nonzero;"/><path d="M607.447,260.171c-6.012,-7.651 -13.868,-13.731 -23.569,-18.24c-9.7,-4.509 -19.059,-6.763 -28.077,-6.763c-4.645,-0 -9.359,0.41 -14.141,1.229c-4.781,0.82 -9.085,2.391 -12.911,4.714c-3.825,2.323 -7.036,5.329 -9.632,9.018c-2.596,3.688 -3.894,8.402 -3.894,14.141c0,4.918 1.025,9.017 3.074,12.296c2.05,3.279 5.055,6.148 9.018,8.608c3.962,2.459 8.675,4.713 14.141,6.763c5.465,2.049 11.613,4.167 18.444,6.353c9.837,3.279 20.085,6.899 30.742,10.862c10.656,3.962 20.357,9.222 29.101,15.78c8.744,6.558 15.986,14.688 21.724,24.388c5.738,9.701 8.608,21.792 8.608,36.275c-0,16.668 -3.075,31.083 -9.223,43.243c-6.148,12.159 -14.414,22.202 -24.798,30.126c-10.383,7.924 -22.27,13.799 -35.66,17.625c-13.389,3.826 -27.188,5.738 -41.398,5.738c-20.767,0 -40.851,-3.62 -60.253,-10.862c-19.401,-7.241 -35.523,-17.556 -48.366,-30.946l45.907,-46.726c7.105,8.744 16.464,16.053 28.077,21.928c11.613,5.875 23.159,8.813 34.635,8.813c5.192,-0 10.247,-0.547 15.166,-1.64c4.919,-1.093 9.222,-2.869 12.911,-5.328c3.689,-2.46 6.627,-5.739 8.813,-9.837c2.186,-4.099 3.279,-9.018 3.279,-14.756c-0,-5.465 -1.366,-10.111 -4.099,-13.936c-2.733,-3.826 -6.626,-7.31 -11.682,-10.452c-5.055,-3.143 -11.34,-6.012 -18.854,-8.608c-7.515,-2.596 -16.054,-5.397 -25.618,-8.402c-9.291,-3.006 -18.376,-6.559 -27.257,-10.657c-8.881,-4.099 -16.805,-9.359 -23.773,-15.781c-6.968,-6.421 -12.57,-14.209 -16.806,-23.363c-4.235,-9.154 -6.353,-20.289 -6.353,-33.406c0,-16.122 3.279,-29.921 9.837,-41.398c6.558,-11.477 15.166,-20.904 25.823,-28.282c10.657,-7.378 22.68,-12.774 36.07,-16.19c13.389,-3.416 26.915,-5.124 40.578,-5.124c16.395,0 33.132,3.006 50.211,9.018c17.078,6.011 32.039,14.892 44.882,26.642l-44.677,47.137Z" style="fill:#091216;fill-rule:nonzero;"/><rect x="696.391" y="184.752" width="70.5" height="290.197" style="fill:#091216;fill-rule:nonzero;"/><path d="M1084.55,457.324c-14.21,7.378 -30.81,13.39 -49.801,18.035c-18.991,4.646 -39.69,6.968 -62.097,6.968c-23.227,0 -44.609,-3.689 -64.147,-11.067c-19.538,-7.377 -36.343,-17.761 -50.416,-31.151c-14.072,-13.389 -25.071,-29.443 -32.995,-48.161c-7.925,-18.718 -11.887,-39.554 -11.887,-62.507c0,-23.227 4.031,-44.267 12.092,-63.122c8.061,-18.855 19.196,-34.908 33.405,-48.161c14.209,-13.253 30.878,-23.432 50.006,-30.537c19.128,-7.104 39.758,-10.657 61.892,-10.657c22.954,0 44.268,3.484 63.942,10.452c19.674,6.968 35.66,16.327 47.956,28.077l-44.267,50.416c-6.832,-7.924 -15.849,-14.414 -27.052,-19.469c-11.204,-5.056 -23.91,-7.583 -38.12,-7.583c-12.296,-0 -23.636,2.254 -34.02,6.763c-10.384,4.509 -19.401,10.793 -27.052,18.854c-7.651,8.061 -13.595,17.625 -17.83,28.692c-4.236,11.067 -6.353,23.159 -6.353,36.275c-0,13.389 1.913,25.686 5.738,36.889c3.826,11.204 9.496,20.836 17.01,28.897c7.515,8.061 16.805,14.346 27.872,18.855c11.067,4.508 23.705,6.763 37.915,6.763c8.197,-0 15.985,-0.615 23.363,-1.845c7.378,-1.229 14.209,-3.21 20.494,-5.943l0,-52.875l-55.334,0l-0,-56.564l119.686,0l-0,153.706Z" style="fill:#091216;fill-rule:nonzero;"/><path d="M1325.15,474.949l0,-121.325l-113.128,0l0,121.325l-70.09,0l0,-290.197l70.09,0l0,109.849l113.128,-0l0,-109.849l70.09,0l0,290.197l-70.09,0Z" style="fill:#091216;fill-rule:nonzero;"/><path d="M1579.28,244.595l-0,230.354l-70.09,0l-0,-230.354l-81.977,0l-0,-59.843l234.043,0l0,59.843l-81.976,0Z" style="fill:#091216;fill-rule:nonzero;"/><path d="M1846.52,260.171c-6.011,-7.651 -13.867,-13.731 -23.568,-18.24c-9.701,-4.509 -19.06,-6.763 -28.077,-6.763c-4.645,-0 -9.359,0.41 -14.141,1.229c-4.782,0.82 -9.086,2.391 -12.911,4.714c-3.826,2.323 -7.037,5.329 -9.632,9.018c-2.596,3.688 -3.894,8.402 -3.894,14.141c-0,4.918 1.024,9.017 3.074,12.296c2.049,3.279 5.055,6.148 9.017,8.608c3.962,2.459 8.676,4.713 14.141,6.763c5.465,2.049 11.613,4.167 18.445,6.353c9.837,3.279 20.084,6.899 30.741,10.862c10.657,3.962 20.358,9.222 29.102,15.78c8.744,6.558 15.985,14.688 21.724,24.388c5.738,9.701 8.607,21.792 8.607,36.275c0,16.668 -3.074,31.083 -9.222,43.243c-6.148,12.159 -14.414,22.202 -24.798,30.126c-10.384,7.924 -22.27,13.799 -35.66,17.625c-13.389,3.826 -27.189,5.738 -41.398,5.738c-20.768,0 -40.852,-3.62 -60.253,-10.862c-19.401,-7.241 -35.523,-17.556 -48.366,-30.946l45.907,-46.726c7.104,8.744 16.463,16.053 28.077,21.928c11.613,5.875 23.158,8.813 34.635,8.813c5.192,-0 10.247,-0.547 15.166,-1.64c4.918,-1.093 9.222,-2.869 12.911,-5.328c3.689,-2.46 6.626,-5.739 8.812,-9.837c2.186,-4.099 3.279,-9.018 3.279,-14.756c0,-5.465 -1.366,-10.111 -4.098,-13.936c-2.733,-3.826 -6.627,-7.31 -11.682,-10.452c-5.055,-3.143 -11.34,-6.012 -18.855,-8.608c-7.514,-2.596 -16.054,-5.397 -25.617,-8.402c-9.291,-3.006 -18.377,-6.559 -27.258,-10.657c-8.88,-4.099 -16.805,-9.359 -23.773,-15.781c-6.968,-6.421 -12.57,-14.209 -16.805,-23.363c-4.236,-9.154 -6.353,-20.289 -6.353,-33.406c-0,-16.122 3.279,-29.921 9.837,-41.398c6.558,-11.477 15.166,-20.904 25.823,-28.282c10.657,-7.378 22.68,-12.774 36.069,-16.19c13.39,-3.416 26.916,-5.124 40.579,-5.124c16.395,0 33.132,3.006 50.21,9.018c17.079,6.011 32.04,14.892 44.883,26.642l-44.678,47.137Z" style="fill:#091216;fill-rule:nonzero;"/></g></g></g></g></svg>