<svg width="100%" height="100%" viewBox="0 0 2813 667" version="1.1" xmlns="http://www.w3.org/2000/svg"
     xmlns:xlink="http://www.w3.org/1999/xlink" xml:space="preserve" xmlns:serif="http://www.serif.com/"
     fill="currentColor" style="fill-rule:evenodd;clip-rule:evenodd;stroke-linejoin:round;stroke-miterlimit:2;"><g><path d="M1428.72,244.567l0,111.68l-40.214,0l0,-189.58l33.091,-0l81.806,111.68l0,-111.68l40.214,-0l0,189.58l-33.09,0l-81.807,-111.68Z" style="fill-rule:nonzero;"/><path
  d="M1705.67,206.881l0,109.152l37.457,0c15.013,0 27.843,-5.323 38.49,-15.971c10.647,-10.647 15.971,-23.554 15.971,-38.72c-0,-15.013 -5.324,-27.843 -15.971,-38.491c-10.647,-10.647 -23.477,-15.97 -38.49,-15.97l-37.457,-0Zm-40.214,149.366l0,-189.58l77.671,-0c26.043,-0 48.333,9.268 66.87,27.805c18.537,18.537 27.805,40.827 27.805,66.87c-0,26.197 -9.268,48.563 -27.805,67.1c-18.537,18.537 -40.827,27.805 -66.87,27.805l-77.671,0Z"
  style="fill-rule:nonzero;"/><path
  d="M1959.64,281.564l0,-114.897l40.214,-0l0,114.897c0,11.03 3.907,20.49 11.72,28.38c7.813,7.889 17.311,11.834 28.495,11.834c11.03,-0 20.49,-3.945 28.379,-11.834c7.89,-7.89 11.835,-17.35 11.835,-28.38l-0,-114.897l40.214,-0l-0,114.897c-0,22.213 -7.852,41.171 -23.554,56.874c-15.703,15.703 -34.661,23.554 -56.874,23.554c-22.214,0 -41.172,-7.851 -56.875,-23.554c-15.702,-15.703 -23.554,-34.661 -23.554,-56.874Z"
  style="fill-rule:nonzero;"/><path
  d="M2282.55,206.881l0,68.938l28.724,0c9.499,0 17.618,-3.37 24.359,-10.111c6.74,-6.741 10.111,-14.86 10.111,-24.358c-0,-9.498 -3.371,-17.618 -10.111,-24.358c-6.741,-6.741 -14.86,-10.111 -24.359,-10.111l-28.724,-0Zm0,109.152l0,40.214l-40.214,0l0,-189.58l68.938,-0c20.682,-0 38.3,7.276 52.853,21.83c14.554,14.554 21.831,32.171 21.831,52.853c-0,20.681 -7.277,38.299 -21.831,52.853c-2.911,2.91 -6.051,5.591 -9.421,8.042l31.252,54.002l-46.419,0l-23.209,-40.444c-1.685,0.154 -3.37,0.23 -5.056,0.23l-28.724,0Z"
  style="fill-rule:nonzero;"/><rect x="2507.79" y="166.667" width="40.214" height="189.58"
                                                 style="fill-rule:nonzero;"/><path
  d="M2669.85,166.667l45.769,-0l0,149.366l91.54,0l-0,40.214l-137.309,0l-0,-189.58Z"
  style="fill-rule:nonzero;"/><path
  d="M0,666.667l333.333,-666.667l183.334,0l333.333,666.667l-511.111,-0l77.778,-155.556l166.666,0l-161.111,-316.667l-233.333,472.223l-188.889,-0"
  style=""/><path
  d="M1038.89,355.167l88.889,-188.5l44.444,-0l94.445,188.5l-55.556,0l-61.111,-131.003l-55.556,131.003l-55.555,0Z"
  style=""/><path
  d="M1067.59,433.21l0,40l16.667,0c5.511,0 10.222,-1.955 14.133,-5.867c3.911,-3.911 5.867,-8.622 5.867,-14.133c-0,-5.511 -1.956,-10.222 -5.867,-14.133c-3.911,-3.911 -8.622,-5.867 -14.133,-5.867l-16.667,0Zm0,63.333l0,23.334l-23.333,-0l-0,-110l40,-0c12,-0 22.222,4.222 30.667,12.666c8.444,8.445 12.666,18.667 12.666,30.667c0,12 -4.222,22.222 -12.666,30.667c-8.445,8.444 -18.667,12.666 -30.667,12.666l-16.667,0Z"
  style="fill-rule:nonzero;"/><path
  d="M1358.72,483.21l-17.333,-36.8l-17.334,36.8l34.667,0Zm10.933,23.333l-56.533,0l-6.267,13.334l-26,-0l51.734,-110l17.333,-0l51.733,110l-25.733,-0l-6.267,-13.334Z"
  style="fill-rule:nonzero;"/><path
  d="M1578.24,433.21l-0,40l16.667,0c5.511,0 10.222,-1.955 14.133,-5.867c3.911,-3.911 5.867,-8.622 5.867,-14.133c-0,-5.511 -1.956,-10.222 -5.867,-14.133c-3.911,-3.911 -8.622,-5.867 -14.133,-5.867l-16.667,0Zm-0,63.333l-0,23.334l-23.333,-0l-0,-110l40,-0c12,-0 22.222,4.222 30.666,12.666c8.445,8.445 12.667,18.667 12.667,30.667c-0,12 -4.222,22.222 -12.667,30.667c-1.689,1.689 -3.511,3.244 -5.466,4.666l18.133,31.334l-26.933,-0l-13.467,-23.467c-0.978,0.089 -1.956,0.133 -2.933,0.133l-16.667,0Z"
  style="fill-rule:nonzero;"/><path
  d="M1868.16,409.877l-0,23.333l-26.667,0l0,86.667l-23.333,-0l-0,-86.667l-26.667,0l0,-23.333l76.667,-0Z"
  style="fill-rule:nonzero;"/><path
  d="M2044.76,455.077l0,64.8l-23.333,-0l-0,-110l19.2,-0l47.467,64.8l-0,-64.8l23.333,-0l-0,110l-19.2,-0l-47.467,-64.8Z"
  style="fill-rule:nonzero;"/><path
  d="M2338.01,409.877l0,23.333l-50,0l0,20l40,0l0,23.333l-40,0l0,20l50,0l0,23.334l-73.333,-0l0,-110l73.333,-0Z"
  style="fill-rule:nonzero;"/><path
  d="M2514.6,433.21l-0,40l16.666,0c5.512,0 10.223,-1.955 14.134,-5.867c3.911,-3.911 5.866,-8.622 5.866,-14.133c0,-5.511 -1.955,-10.222 -5.866,-14.133c-3.911,-3.911 -8.622,-5.867 -14.134,-5.867l-16.666,0Zm-0,63.333l-0,23.334l-23.334,-0l0,-110l40,-0c12,-0 22.223,4.222 30.667,12.666c8.445,8.445 12.667,18.667 12.667,30.667c-0,12 -4.222,22.222 -12.667,30.667c-1.689,1.689 -3.511,3.244 -5.467,4.666l18.134,31.334l-26.934,-0l-13.466,-23.467c-0.978,0.089 -1.956,0.133 -2.934,0.133l-16.666,0Z"
  style="fill-rule:nonzero;"/><path
  d="M2747.06,486.143c7.111,9.156 15.2,13.734 24.267,13.734c5.244,-0 9.555,-1 12.933,-3c3.378,-2 5.067,-5 5.067,-9c-0.267,-3.556 -2.267,-6.222 -6,-8l-25.734,-6.267c-7.911,-2.489 -14.266,-6.511 -19.066,-12.067c-4.8,-5.555 -7.2,-11.666 -7.2,-18.333c-0,-11.111 3.889,-20 11.666,-26.667c7.778,-6.666 16.823,-10 27.134,-10c15.822,0 28.889,5.778 39.2,17.334l-18.134,14.533c-5.244,-5.689 -11.866,-8.533 -19.866,-8.533c-5.334,-0 -9.445,1.111 -12.334,3.333c-2.889,2.222 -4.333,4.889 -4.333,8c-0,4.445 3.022,7.956 9.067,10.533l25.866,6.134c15.378,5.778 23.067,15.778 23.067,30c-0,9.422 -3.556,17.666 -10.667,24.733c-7.111,7.067 -17.333,10.6 -30.666,10.6c-18.134,0 -32.623,-8 -43.467,-24l19.2,-13.067Z"
  style="fill-rule:nonzero;"/></g></svg>
