<svg viewBox="0 0 931 931" version="1.1" xmlns="http://www.w3.org/2000/svg"
     style="fill-rule:evenodd;clip-rule:evenodd;stroke-linejoin:round;stroke-miterlimit:2;">
  <path style="fill:currentColor;"
        d="M465.235,0c256.77,0 465.235,208.465 465.235,465.235c0,256.77 -208.465,465.235 -465.235,465.235c-256.77,0 -465.235,-208.465 -465.235,-465.235c0,-256.77 208.465,-465.235 465.235,-465.235Zm-162.482,255.82c115.58,-0 209.416,93.835 209.416,209.415c-0,115.58 -93.836,209.416 -209.416,209.416c-115.579,-0 -209.415,-93.836 -209.415,-209.416c-0,-115.58 93.836,-209.415 209.415,-209.415Zm331.39,12.172c57.509,-0 104.2,88.382 104.2,197.243c-0,108.861 -46.691,197.243 -104.2,197.243c-57.509,0 -104.199,-88.382 -104.199,-197.243c0,-108.861 46.69,-197.243 104.199,-197.243Zm161.498,19.109c20.58,-0 37.288,79.819 37.288,178.134c-0,98.315 -16.708,178.134 -37.288,178.134c-20.579,0 -37.287,-79.819 -37.287,-178.134c-0,-98.315 16.708,-178.134 37.287,-178.134Z"/>
</svg>
