<?xml version="1.0" encoding="UTF-8" standalone="no"?><!DOCTYPE svg PUBLIC "-//W3C//DTD SVG 1.1//EN" "http://www.w3.org/Graphics/SVG/1.1/DTD/svg11.dtd"><svg width="100%" height="100%" viewBox="0 0 3292 580" version="1.1" xmlns="http://www.w3.org/2000/svg" xmlns:xlink="http://www.w3.org/1999/xlink" xml:space="preserve" xmlns:serif="http://www.serif.com/" style="fill-rule:evenodd;clip-rule:evenodd;stroke-linejoin:round;stroke-miterlimit:2;"><g><path d="M3001.52,0c159.826,0 289.584,129.758 289.584,289.583c-0,159.826 -129.758,289.584 -289.584,289.584c-159.825,-0 -289.583,-129.758 -289.583,-289.584c-0,-159.825 129.758,-289.583 289.583,-289.583Zm0,131.25c87.387,0 158.334,70.947 158.334,158.333c-0,87.387 -70.947,158.334 -158.334,158.334c-87.386,-0 -158.333,-70.947 -158.333,-158.334c-0,-87.386 70.947,-158.333 158.333,-158.333Z"/><path d="M2166.1,0l-0,579.167l108.333,-0l-0,-239.021l225,-0l-0,239.021l112.5,-0l-0,-579.167l-112.5,0l-0,225.231l-225,0l-0,-225.231l-108.333,0Z"/><path d="M0,0l0.432,579.167l102.607,-0l-0.432,-181.244l66.155,-71.08l177.982,252.324l127.692,-0l-229.899,-333.52l196.566,-210.055l-0,-35.592l-114.253,-0l-224.243,231.622l-0,-231.622l-102.607,-0Z"/><path d="M2032.77,77.259l-62.5,81.506c0,0 -63.656,-48.317 -114.583,-51.478c-30.053,-1.864 -81.094,17.935 -81.25,60.058c-0.156,42.122 76.497,53.19 108.333,68.637c31.837,15.446 167.568,29.052 170.834,171.592c2.38,103.907 -87.872,171.835 -197.917,171.592c-110.045,-0.243 -214.583,-94.376 -214.583,-94.376l62.5,-72.926c-0,-0 90.067,64.272 152.083,64.347c62.016,0.074 81.935,-27.287 81.25,-68.637c-0.899,-54.216 -82.527,-57.549 -120.833,-72.927c-38.307,-15.378 -161.923,-41.861 -158.334,-167.302c3.59,-125.442 109.667,-168.902 197.917,-167.303c88.25,1.6 177.083,77.217 177.083,77.217Z"/><path d="M1068.19,579.167l108.333,-0l0,-383.408l252.084,383.408l108.333,-0l-0,-579.167l-108.333,0l-0,367.725l-252.084,-367.725l-108.333,0l-0,579.167Z"/><path d="M553.603,0l-0,579.167l404.166,-0l0,-101.125l-291.666,0l-0,-137.896l245.833,-0l-0,-101.125l-245.833,0l-0,-137.897l291.666,0l0,-101.124l-404.166,0Z"/></g></svg>