<svg id="Layer_1" data-name="Layer 1" xmlns="http://www.w3.org/2000/svg" viewBox="0 0 488.52973 186.32029"><defs><style>.cls-1{fill:#1c649c;}.cls-2{fill:#36b5e1;}.cls-3{fill:#16629f;}.cls-4{fill:#f26c4f;}</style></defs><title>Prattle-Liquidnet-Logo-Dark_V2</title><path class="cls-1" d="M171.08172,129.77239V161.1996H159.62359V78.70294h11.45813v8.72978a25.38356,25.38356,0,0,1,20.29638-9.93055c15.60466,0,29.46337,12.11228,29.46337,30.66318,0,18.44243-14.186,30.66413-29.46337,30.66413C183.08505,138.82948,175.44661,135.66487,171.08172,129.77239ZM209.056,108.05688c0-11.13035-8.40248-19.86013-19.31446-19.86013-11.13035,0-19.42388,8.94767-19.42388,19.86013,0,11.02093,8.29353,19.9686,19.42388,19.9686C200.65355,128.02548,209.056,119.18723,209.056,108.05688Z" transform="translate(-23.22989 -16.31741)"/><path class="cls-1" d="M230.77106,78.70294h11.56708V88.95983c2.50951-7.4196,8.51141-11.13035,16.04091-11.13035a19.64234,19.64234,0,0,1,9.93007,2.2921l-4.58326,11.34824c-1.637-1.09134-4.03758-1.74595-7.42007-1.74595-8.40248,0-13.74976,4.14652-13.74976,14.73168v33.17317h-11.785Z" transform="translate(-23.22989 -16.31741)"/><path class="cls-1" d="M271.47467,121.36992c0-12.11323,10.03949-19.53283,26.51665-19.53283h17.45956v-.98287c0-7.85633-4.80114-13.313-15.27688-13.313A18.79147,18.79147,0,0,0,283.26011,97.035l-10.47573-6.11037c5.78306-7.74786,14.84015-13.42246,27.49857-13.42246,16.91389,0,26.51665,9.3844,26.51665,23.67936v36.44719H315.45088V127.2624c-4.6922,6.98382-13.313,11.56708-23.13368,11.56708C278.67686,138.82948,271.47467,131.29951,271.47467,121.36992Zm43.97621-5.23787v-4.91056H298.75536c-10.91247,0-15.27736,3.38249-15.27736,9.16555,0,5.1294,3.49191,8.18459,11.34872,8.18459C303.22919,128.57163,311.63166,123.879,315.45088,116.13205Z" transform="translate(-23.22989 -16.31741)"/><path class="cls-1" d="M332.91139,78.70294h11.676V65.9351l11.56708-7.529V78.70294h16.47763v10.5842H356.1545v29.02664c0,6.43863,3.1646,9.27593,7.74785,9.27593a8.47461,8.47461,0,0,0,6.00143-2.29211l5.56565,9.82113a21.73182,21.73182,0,0,1-12.44,3.60133c-11.676,0-18.442-5.784-18.442-20.29686V89.28714h-11.676Z" transform="translate(-23.22989 -16.31741)"/><path class="cls-1" d="M379.1778,78.70294h11.676V65.9351l11.56707-7.529V78.70294h16.47764v10.5842H402.4209v29.02664c0,6.43863,3.16461,9.27593,7.74786,9.27593a8.47461,8.47461,0,0,0,6.00143-2.29211l5.56565,9.82113a21.73182,21.73182,0,0,1-12.44,3.60133c-11.676,0-18.442-5.784-18.442-20.29686V89.28714h-11.676Z" transform="translate(-23.22989 -16.31741)"/><path class="cls-1" d="M428.71871,51.64014H440.6131v85.98858H428.71871Z" transform="translate(-23.22989 -16.31741)"/><path class="cls-1" d="M450.86952,108.38419c0-17.35109,13.31256-30.882,30.66318-30.882s30.22692,12.65842,30.22692,30.118v4.91056H462.21824c1.74595,9.49381,9.166,15.823,19.96907,15.823,8.29353,0,13.74976-3.82017,17.24168-9.49381l9.7117,5.78306c-5.67412,8.51189-14.186,14.18649-26.95338,14.18649C463.41852,138.82948,450.86952,125.51644,450.86952,108.38419Zm11.785-5.89248h37.21075c-1.746-9.27593-8.62036-14.62227-18.33254-14.62227A19.23938,19.23938,0,0,0,462.65449,102.49171Z" transform="translate(-23.22989 -16.31741)"/><path class="cls-2" d="M168.63358,173.39507h2.68078l9.01,22.75833h-2.71218l-2.21361-5.705H164.54937l-2.18221,5.70505h-2.74357Zm-3.118,14.58991h8.91627l-4.489-11.50332Z" transform="translate(-23.22989 -16.31741)"/><path class="cls-2" d="M191.674,173.39507h2.61846v20.23311h11.72217v2.52522H191.674Z" transform="translate(-23.22989 -16.31741)"/><path class="cls-2" d="M211.3781,172.11724a2.0264,2.0264,0,1,1-1.99524,2.02569A1.96518,1.96518,0,0,1,211.3781,172.11724Zm-1.2783,7.20171h2.58753V196.1534H210.0998Z" transform="translate(-23.22989 -16.31741)"/><path class="cls-2" d="M216.55317,187.7357a8.496,8.496,0,0,1,8.57327-8.76023,7.67719,7.67719,0,0,1,6.29781,3.30447v-2.961h2.49381V202.6377h-2.49381v-9.38345a7.57785,7.57785,0,0,1-6.29781,3.24168A8.45872,8.45872,0,0,1,216.55317,187.7357Zm15.058-.03045a6.2743,6.2743,0,0,0-6.26641-6.39105,6.39181,6.39181,0,1,0,6.26641,6.39105Z" transform="translate(-23.22989 -16.31741)"/><path class="cls-2" d="M238.12834,188.88984V179.319h2.58753v9.44624c0,3.27308,1.68364,5.393,4.92579,5.393a5.17481,5.17481,0,0,0,5.17507-5.51855V179.319h2.55661V196.1534h-2.49429v-2.77451a6.42348,6.42348,0,0,1-5.67364,3.117C240.62263,196.49593,238.12834,193.62818,238.12834,188.88984Z" transform="translate(-23.22989 -16.31741)"/><path class="cls-2" d="M259.20445,172.11724a2.0264,2.0264,0,1,1-1.99524,2.02569A1.96518,1.96518,0,0,1,259.20445,172.11724Zm-1.2783,7.20171h2.58753V196.1534h-2.58753Z" transform="translate(-23.22989 -16.31741)"/><path class="cls-2" d="M264.37953,187.7357a8.496,8.496,0,0,1,8.57326-8.76023,7.64471,7.64471,0,0,1,6.29733,3.274V171.55587h2.52569V196.1534h-2.52569V193.161a7.62418,7.62418,0,0,1-6.29733,3.33492A8.45872,8.45872,0,0,1,264.37953,187.7357Zm15.058-.03045a6.2743,6.2743,0,0,0-6.26641-6.39105,6.39181,6.39181,0,1,0,6.26641,6.39105Z" transform="translate(-23.22989 -16.31741)"/><path class="cls-2" d="M286.29722,179.319h2.49429v2.80495a6.73109,6.73109,0,0,1,5.86109-3.14843c4.39581,0,7.17031,2.8687,7.17031,7.57564v9.60229h-2.58754v-9.47764c0-3.27308-1.80827-5.393-5.08182-5.393a5.25379,5.25379,0,0,0-5.29972,5.5176v9.353h-2.55661Z" transform="translate(-23.22989 -16.31741)"/><path class="cls-2" d="M305.50321,187.7985a8.63443,8.63443,0,0,1,8.79163-8.823,8.3044,8.3044,0,0,1,8.57326,8.57374v1.15319H307.99751a6.08843,6.08843,0,0,0,6.39058,5.48715,6.0188,6.0188,0,0,0,5.64319-3.24262l2.18221,1.27878a8.65086,8.65086,0,0,1-7.8254,4.27022C308.99513,196.49593,305.50321,192.72428,305.50321,187.7985Zm2.55662-1.34063h12.18934a5.67305,5.67305,0,0,0-5.95433-5.20647A6.25239,6.25239,0,0,0,308.05983,186.45787Z" transform="translate(-23.22989 -16.31741)"/><path class="cls-2" d="M324.74013,179.319h3.27355V175.6082l2.52521-1.62036V179.319h4.92579v2.275h-4.92579v9.41579c0,2.15129.99762,2.99239,2.4315,2.99239a2.71428,2.71428,0,0,0,1.93292-.81066l1.34063,2.02665a5.40584,5.40584,0,0,1-3.46052,1.18458c-3.08611,0-4.76974-1.62131-4.76974-5.33111v-9.47764h-3.27355Z" transform="translate(-23.22989 -16.31741)"/><path class="cls-2" d="M346.47039,184.77471a11.67688,11.67688,0,0,1,21.72977-5.95528l-2.245,1.372a8.83747,8.83747,0,0,0-7.79353-4.6451,9.19805,9.19805,0,0,0-.0314,18.3939,8.76482,8.76482,0,0,0,8.07469-4.95718l2.30685,1.216a11.6873,11.6873,0,0,1-22.04138-5.42436Z" transform="translate(-23.22989 -16.31741)"/><path class="cls-2" d="M371.3819,187.7357a8.74478,8.74478,0,1,1,8.7293,8.76023A8.64351,8.64351,0,0,1,371.3819,187.7357Zm14.902,0a6.16045,6.16045,0,1,0-12.31446,0,6.15957,6.15957,0,1,0,12.31446,0Z" transform="translate(-23.22989 -16.31741)"/><path class="cls-2" d="M392.7073,179.319h2.52521v2.46242a6.07285,6.07285,0,0,1,5.39344-2.8059c2.99286,0,4.95718,1.372,5.86108,3.49191a6.55232,6.55232,0,0,1,6.048-3.49191c4.6765,0,7.13939,2.8687,7.13939,7.26451v9.91342h-2.58753v-9.883c0-2.961-1.715-5.019-4.80115-5.019-2.80589,0-4.89486,1.902-4.89486,5.20647v9.69553H404.8348V186.02114c0-2.89914-1.65224-4.76974-4.6451-4.76974-2.89962,0-4.92579,2.02664-4.92579,5.42436v9.47764H392.7073Z" transform="translate(-23.22989 -16.31741)"/><path class="cls-2" d="M426.62832,193.25425v9.38345h-2.52521V179.319h2.49429v3.08564a7.54858,7.54858,0,0,1,6.35966-3.42912,8.76264,8.76264,0,0,1-.03092,17.52046A7.42006,7.42006,0,0,1,426.62832,193.25425Zm12.28354-5.549a6.2041,6.2041,0,0,0-6.20409-6.39105,6.39127,6.39127,0,0,0,0,12.78116A6.14839,6.14839,0,0,0,438.91186,187.70525Z" transform="translate(-23.22989 -16.31741)"/><path class="cls-2" d="M444.36857,191.53969c0-3.46051,2.93054-5.45575,7.63844-5.45575h5.33064v-.65462c0-2.55661-1.65224-4.27117-4.92579-4.27117a5.95008,5.95008,0,0,0-5.362,2.83635l-2.21361-1.40247a9.09276,9.09276,0,0,1,7.607-3.61656c4.80114,0,7.38868,2.64986,7.38868,6.45385V196.1534h-2.49429v-2.962a8.53691,8.53691,0,0,1-6.98335,3.30448C446.33289,196.49593,444.36857,194.2514,444.36857,191.53969Zm12.96908-1.09134V188.141h-5.206c-3.49191,0-5.14415,1.12274-5.14415,3.21122,0,1.65272,1.18459,2.89915,3.83445,2.89915A7.40882,7.40882,0,0,0,457.33765,190.44835Z" transform="translate(-23.22989 -16.31741)"/><path class="cls-2" d="M464.25963,179.319h2.49429v2.80495a6.73107,6.73107,0,0,1,5.86108-3.14843c4.39581,0,7.17031,2.8687,7.17031,7.57564v9.60229h-2.58753v-9.47764c0-3.27308-1.80828-5.393-5.08183-5.393a5.25379,5.25379,0,0,0-5.29971,5.5176v9.353h-2.55661Z" transform="translate(-23.22989 -16.31741)"/><path class="cls-2" d="M480.69112,200.61105l1.65223-2.08848a3.04666,3.04666,0,0,0,2.432,1.15414c1.77688,0,2.61846-.74881,3.86584-3.52331l.37393-.81066L481.96942,179.319h2.7745l5.64273,13.0314,5.36251-13.0314h2.7745l-7.638,17.5823c-1.62131,3.7726-3.1489,5.20647-6.07944,5.20647A6.13658,6.13658,0,0,1,480.69112,200.61105Z" transform="translate(-23.22989 -16.31741)"/><path class="cls-3" d="M66.82926,106.41764a114.44278,114.44278,0,0,1,69.56665-24.82913" transform="translate(-23.22989 -16.31741)"/><path class="cls-4" d="M72.889,196.52233a65.25558,65.25558,0,0,1,65.28652-65.27809V82.02139c-1.173,0-2.30714-.45913-3.471-.42557A114.98138,114.98138,0,0,0,23.22989,196.52233Z" transform="translate(-23.22989 -16.31741)"/><path class="cls-2" d="M138.17558,81.6062A65.26369,65.26369,0,0,1,72.88906,16.31741H23.22994a114.77079,114.77079,0,0,0,43.547,90.10423,114.17515,114.17515,0,0,0,71.39865,24.59884Z" transform="translate(-23.22989 -16.31741)"/><path class="cls-1" d="M66.82926,106.41764a114.4,114.4,0,0,0,69.56665,24.83452c.60483-.019,1.20431-.00764,1.81216-.00764v-49.656h-1.81216a114.44278,114.44278,0,0,0-69.56665,24.82913" transform="translate(-23.22989 -16.31741)"/></svg>