<?xml version="1.0" encoding="UTF-8" standalone="no"?><!DOCTYPE svg PUBLIC "-//W3C//DTD SVG 1.1//EN" "http://www.w3.org/Graphics/SVG/1.1/DTD/svg11.dtd"><svg width="100%" height="100%" viewBox="0 0 657 591" version="1.1" xmlns="http://www.w3.org/2000/svg" xmlns:xlink="http://www.w3.org/1999/xlink" xml:space="preserve" xmlns:serif="http://www.serif.com/" style="fill-rule:evenodd;clip-rule:evenodd;stroke-linecap:round;stroke-linejoin:round;stroke-miterlimit:1.5;"><g><path d="M129.549,300.76l-0.418,184.061l104.166,0l0,-184.061l-103.748,-0Z" style="fill:#032e50;stroke:#011845;stroke-width:3.13px;"/><path d="M382.796,271.552l-1.09,213.269l104.166,0l0,-213.269l-103.076,-0Z" style="fill:#032e50;stroke:#011845;stroke-width:3.13px;"/><path d="M508.08,205.17l-0.614,378.148l104.167,-98.759l0,-279.389l-103.553,0Z" style="fill:#032e50;stroke:#011845;stroke-width:3.13px;"/><path d="M2.958,330.655l0,154.166l104.167,104.167l0,-258.333l-104.167,-0Z" style="fill:#032e50;stroke:#011845;stroke-width:3.13px;"/><rect x="254.625" y="253.217" width="104.167" height="231.605" style="fill:#032e50;stroke:#011845;stroke-width:3.13px;"/></g><circle cx="633.622" cy="22.461" r="20.899" style="fill:none;stroke:#051945;stroke-width:3.13px;"/><g><path d="M627.54,14.068l-0.094,16.608" style="fill:none;stroke:#051945;stroke-width:3.13px;"/><path d="M627.54,14.068l12.193,0" style="fill:none;stroke:#051945;stroke-width:3.13px;"/><path d="M627.606,22.709l12.192,0" style="fill:none;stroke:#051945;stroke-width:3.13px;"/><path d="M639.475,14.246l-0.094,16.608" style="fill:none;stroke:#051945;stroke-width:3.13px;"/></g><g><path d="M2.083,5.463l38.32,0c8.642,0 15.229,0.722 19.762,2.166c6.092,1.96 11.31,5.441 15.654,10.443c4.345,5.003 7.65,11.127 9.917,18.372c2.266,7.246 3.4,16.181 3.4,26.804c-0,9.335 -1.063,17.38 -3.188,24.135c-2.597,8.252 -6.304,14.93 -11.12,20.035c-3.636,3.868 -8.547,6.885 -14.733,9.051c-4.628,1.599 -10.814,2.398 -18.558,2.398l-39.454,0l0,-113.404Zm20.967,19.185l-0,75.112l15.653,0c5.856,0 10.082,-0.361 12.679,-1.083c3.4,-0.928 6.222,-2.501 8.465,-4.718c2.243,-2.218 4.072,-5.867 5.489,-10.946c1.417,-5.08 2.125,-12.003 2.125,-20.77c0,-8.767 -0.708,-15.497 -2.125,-20.19c-1.417,-4.693 -3.4,-8.355 -5.95,-10.985c-2.55,-2.63 -5.784,-4.409 -9.704,-5.337c-2.927,-0.722 -8.665,-1.083 -17.212,-1.083l-9.42,-0Z" style="fill:#032e50;fill-rule:nonzero;stroke:#011845;stroke-width:4.17px;stroke-linecap:butt;stroke-miterlimit:2;"/><path d="M124.551,58.22l-20.966,0c2.031,-7.942 5.525,-13.821 10.483,-17.637c4.959,-3.816 12.325,-5.724 22.1,-5.724c8.877,-0 15.488,1.147 19.833,3.442c4.344,2.295 7.402,5.209 9.173,8.741c1.77,3.533 2.921,19.455 2.921,19.455l0,52.37l-15.789,0c-0.519,-1.444 0.756,-2.192 0,-5.028c-0.33,-1.289 -2.326,-3.533 -2.468,-3.945c-3.399,3.61 -7.036,6.317 -10.908,8.122c-3.872,1.805 -8.004,2.708 -12.395,2.708c-7.745,-0 -13.848,-2.295 -18.31,-6.885c-4.463,-4.59 -6.694,-10.392 -6.694,-17.405c0,-4.641 1.015,-8.78 3.046,-12.416c2.03,-3.635 4.876,-6.42 8.535,-8.354c3.66,-1.934 13.423,-5.067 13.423,-5.067l21.745,0l0,-7.503c2.503,-6.227 -5.339,-16.884 -13.529,-15.77c-5.587,0.759 -12.233,5.469 -10.2,10.896Zm23.729,21.196l-18.639,-0c-2.869,-1.728 -12.217,9.265 -8.206,14.775c1.734,2.381 1.039,5.672 3.116,7.89c2.078,2.217 4.723,3.326 7.934,3.326c3.588,0 7.012,-1.289 10.27,-3.868c2.409,-1.959 3.99,-4.357 4.746,-7.194c0.519,-1.856 0.779,-5.389 0.779,-10.597l0,-4.332Z" style="fill:#032e50;fill-rule:nonzero;stroke:#011845;stroke-width:4.17px;stroke-linecap:butt;stroke-miterlimit:2;"/><path d="M256.725,57.324l-20.966,0c2.03,-7.941 5.525,-13.82 10.483,-17.637c4.958,-3.816 12.325,-5.724 22.099,-5.724c8.878,-0 15.489,1.147 19.833,3.442c4.345,2.295 7.402,5.209 9.173,8.742c1.771,3.532 2.922,19.455 2.922,19.455l-0,52.369l-15.789,0c-0.52,-1.444 0.755,-2.191 -0,-5.028c-0.331,-1.289 -2.326,-3.532 -2.468,-3.945c-3.4,3.61 -7.036,6.317 -10.908,8.122c-3.872,1.805 -8.004,2.708 -12.396,2.708c-7.744,-0 -13.847,-2.295 -18.31,-6.885c-4.462,-4.59 -6.693,-10.391 -6.693,-17.405c-0,-4.641 1.015,-8.78 3.045,-12.415c2.031,-3.636 4.876,-6.421 8.536,-8.355c3.659,-1.934 13.422,-5.067 13.422,-5.067l21.746,0l-0,-7.503c2.502,-6.227 -5.339,-16.884 -13.529,-15.77c-5.588,0.759 -12.234,5.469 -10.2,10.896Zm23.729,21.196l-18.64,-0c-2.868,-1.727 -12.216,9.266 -8.206,14.775c1.734,2.382 1.039,5.673 3.117,7.89c2.078,2.218 4.722,3.326 7.933,3.326c3.589,0 7.013,-1.289 10.271,-3.867c2.408,-1.96 3.99,-4.358 4.746,-7.194c0.519,-1.857 0.779,-5.39 0.779,-10.598l-0,-4.332Z" style="fill:#032e50;fill-rule:nonzero;stroke:#011845;stroke-width:4.17px;stroke-linecap:butt;stroke-miterlimit:2;"/><path d="M221.945,36.715l0,17.328l-13.6,-0l0,33.108c0,6.704 0.13,14.778 0.39,15.886c0.26,1.109 0.85,2.024 1.771,2.746c0.921,0.722 2.042,1.083 3.364,1.083c1.842,0 5.36,-0.696 8.854,-2.088l0,12.697c-4.627,2.166 -9.019,3.249 -14.874,3.249c-3.589,-0 -6.824,-0.658 -9.704,-1.973c-2.881,-1.315 -4.994,-3.017 -6.34,-5.105c-1.346,-2.089 -2.278,-4.913 -2.798,-8.471c-0.425,-2.527 -0.637,-7.632 -0.637,-15.316l-0,-35.816l-9.137,-0l-0,-17.328l9.137,0l-0,-20.489l19.974,-0.186l0,20.675l13.6,0Z" style="fill:#032e50;fill-rule:nonzero;stroke:#011845;stroke-width:4.17px;stroke-linecap:butt;stroke-miterlimit:2;"/><path d="M337.118,118.867l-30.316,-82.152l20.895,0l14.166,41.927l4.109,14.001c1.086,-3.558 1.77,-5.904 2.054,-7.039c0.661,-2.321 1.369,-4.641 2.125,-6.962l14.308,-41.927l20.47,0l-29.891,82.152l-17.92,0Z" style="fill:#032e50;fill-rule:nonzero;stroke:#011845;stroke-width:4.17px;stroke-linecap:butt;stroke-miterlimit:2;"/><path d="M392.508,76.631c0,-7.22 1.629,-14.208 4.887,-20.964c3.259,-6.755 7.875,-11.912 13.848,-15.471c5.974,-3.558 12.644,-5.337 20.01,-5.337c11.38,-0 20.707,4.035 27.979,12.106c7.272,8.071 10.908,18.269 10.908,30.594c-0,12.429 -3.672,22.73 -11.015,30.904c-7.342,8.174 -16.586,12.261 -27.73,12.261c-6.895,-0 -13.47,-1.702 -19.727,-5.106c-6.257,-3.404 -11.014,-8.393 -14.273,-14.968c-3.258,-6.575 -4.887,-14.582 -4.887,-24.019Zm20.4,1.16c-0,8.148 1.77,14.388 5.312,18.72c3.542,4.332 7.91,6.498 13.104,6.498c5.194,0 9.55,-2.166 13.068,-6.498c3.518,-4.332 5.277,-10.623 5.277,-18.875c0,-8.045 -1.759,-14.233 -5.277,-18.565c-3.518,-4.332 -7.874,-6.498 -13.068,-6.498c-5.194,0 -9.562,2.166 -13.104,6.498c-3.542,4.332 -5.312,10.572 -5.312,18.72Z" style="fill:#032e50;fill-rule:nonzero;stroke:#011845;stroke-width:4.17px;stroke-linecap:butt;stroke-miterlimit:2;"/><path d="M504.776,118.867l-19.903,0l-0,-82.152l18.487,0l-0,11.681c3.164,-5.518 6.009,-9.154 8.535,-10.907c2.526,-1.754 5.395,-2.63 8.606,-2.63c4.533,-0 8.901,1.366 13.104,4.1l-6.162,18.952c-3.353,-2.373 -6.47,-3.559 -9.35,-3.559c-2.786,0 -5.147,0.838 -7.083,2.514c-1.936,1.676 -3.459,4.706 -4.569,9.09c-1.11,4.383 -1.665,13.563 -1.665,27.538l0,25.373Z" style="fill:#032e50;fill-rule:nonzero;stroke:#011845;stroke-width:4.17px;stroke-linecap:butt;stroke-miterlimit:2;"/><path d="M588.332,93.339l20.876,3.556c-2.684,7.766 -6.922,13.679 -12.712,17.739c-5.79,4.06 -13.035,6.09 -21.733,6.09c-13.768,-0 -23.957,-4.564 -30.567,-13.693c-5.219,-7.312 -7.829,-16.541 -7.829,-27.687c0,-13.313 3.43,-23.74 10.289,-31.28c6.859,-7.539 15.532,-11.309 26.02,-11.309c11.779,-0 21.074,3.946 27.883,11.839c6.81,7.892 10.065,19.983 9.767,36.273l-52.487,-0c0.149,6.304 1.839,11.208 5.07,14.713c3.231,3.505 7.257,5.258 12.078,5.258c3.28,-0 6.039,-0.908 8.275,-2.724c2.237,-1.815 3.927,-4.74 5.07,-8.775Zm1.193,-21.484c-0.149,-6.152 -1.715,-10.83 -4.697,-14.032c-2.982,-3.203 -6.61,-4.804 -10.885,-4.804c-4.573,0 -8.35,1.69 -11.332,5.069c-2.982,3.378 -4.449,7.968 -4.399,13.767l31.313,0Z" style="fill:#032e50;fill-rule:nonzero;stroke:#011845;stroke-width:4.17px;stroke-linecap:butt;stroke-miterlimit:2;"/></g></svg>